<svg version="1.1" id="terkep" xmlns="http://www.w3.org/2000/svg" xmlns:xlink="http://www.w3.org/1999/xlink" x="0px" y="0px" viewBox="75 0 425 425" style="enable-background:new 75 0 425 425;" xml:space="preserve">
	<symbol id="erdo" class="erdo" viewBox="-12.8 -12.8 25.5 25.5">
		<rect class="line" x="-12.5" y="-12.5" width="25" height="25"></rect>
		<g transform="matrix(2.4994543,0,0,2.712815,716.4592,-824.71783)">
			<path class="white" d="M-287.4,306.4c0.1,0.1,0.1,0.2,0.1,0.3
			c0,0.5-0.4,0.9-1,0.9c-0.5,0-1-0.4-1-0.9c0-0.1,0-0.2,0.1-0.3c-0.4-0.2-0.7-0.6-0.7-1c0-0.7,0.7-1.2,1.6-1.2s1.6,0.5,1.6,1.2
			C-286.7,305.8-286.9,306.1-287.4,306.4L-287.4,306.4z"></path>
			<path class="line empty" d="M-287.4,306.4c0.1,0.1,0.1,0.2,0.1,0.3
			c0,0.5-0.4,0.9-1,0.9c-0.5,0-1-0.4-1-0.9c0-0.1,0-0.2,0.1-0.3c-0.4-0.2-0.7-0.6-0.7-1c0-0.7,0.7-1.2,1.6-1.2s1.6,0.5,1.6,1.2
			C-286.7,305.8-286.9,306.1-287.4,306.4L-287.4,306.4z"></path>
			<path class="color" d="M-289.1,304.3c0,0,0.9,0.2,0.7,1.1
			c-0.2,0.9-0.1,0.9,0,0.9c0.1,0,0.7,0.4,0.7,0.6c0,0.2-0.2,0.1-0.3,0.3c0,0.2,0.3,0.3,0.5-0.1s0.3-0.3,0.1-0.8
			c-0.2-0.5,0.5,0.3,0.7-1S-288.7,303.8-289.1,304.3L-289.1,304.3z"></path>
			<path class="line empty" d="M-287.4,306.4c0.1,0.1,0.1,0.2,0.1,0.3
			c0,0.5-0.4,0.9-1,0.9c-0.5,0-1-0.4-1-0.9c0-0.1,0-0.2,0.1-0.3c-0.4-0.2-0.7-0.6-0.7-1c0-0.7,0.7-1.2,1.6-1.2s1.6,0.5,1.6,1.2
			C-286.7,305.8-286.9,306.1-287.4,306.4L-287.4,306.4z"></path>
			<polyline class="line" points="-285.9,303.9 -288.5,303.9 -288.5,304.1 			"></polyline>
		</g>
		<g transform="matrix(2.4994543,0,0,2.712815,727.85855,-822.2907)">
			<path class="white" d="M-289.2,305.4c0.1,0.1,0.1,0.2,0.1,0.3
						c0,0.5-0.4,0.9-1,0.9c-0.5,0-1-0.4-1-0.9c0-0.1,0-0.2,0.1-0.3c-0.4-0.2-0.7-0.6-0.7-1c0-0.7,0.7-1.2,1.6-1.2s1.6,0.5,1.6,1.2
						C-288.5,304.8-288.7,305.2-289.2,305.4L-289.2,305.4z"></path>
			<path class="line empty" d="M-289.2,305.4c0.1,0.1,0.1,0.2,0.1,0.3
						c0,0.5-0.4,0.9-1,0.9c-0.5,0-1-0.4-1-0.9c0-0.1,0-0.2,0.1-0.3c-0.4-0.2-0.7-0.6-0.7-1c0-0.7,0.7-1.2,1.6-1.2s1.6,0.5,1.6,1.2
						C-288.5,304.8-288.7,305.2-289.2,305.4L-289.2,305.4z"></path>
			<path class="color" d="M-290.9,303.4c0,0,0.9,0.2,0.7,1.1
				c-0.2,0.9-0.1,0.9,0,0.9s0.7,0.4,0.7,0.6c0,0.2-0.2,0.1-0.3,0.3c0,0.2,0.3,0.3,0.5-0.1s0.3-0.3,0.1-0.8c-0.2-0.5,0.5,0.3,0.7-1
				S-290.5,302.8-290.9,303.4L-290.9,303.4z"></path>
			<path class="line" d="M-289.2,305.4c0.1,0.1,0.1,0.2,0.1,0.3
						c0,0.5-0.4,0.9-1,0.9c-0.5,0-1-0.4-1-0.9c0-0.1,0-0.2,0.1-0.3c-0.4-0.2-0.7-0.6-0.7-1c0-0.7,0.7-1.2,1.6-1.2s1.6,0.5,1.6,1.2
						C-288.5,304.8-288.7,305.2-289.2,305.4L-289.2,305.4z"></path>
			<polyline class="line" points="-287.7,303 -290.3,303 -290.3,303.2 			"></polyline>
		</g>
		<g transform="matrix(2.4994543,0,0,2.712815,716.9493,-817.50594)">
			<path class="white" d="M-288.9,302.1c0.1,0.1,0.1,0.2,0.1,0.3
						c0,0.5-0.4,0.9-1,0.9c-0.5,0-1-0.4-1-0.9c0-0.1,0-0.2,0.1-0.3c-0.4-0.2-0.7-0.6-0.7-1c0-0.7,0.7-1.2,1.6-1.2
						c0.9,0,1.6,0.5,1.6,1.2C-288.2,301.5-288.5,301.8-288.9,302.1L-288.9,302.1z"></path>
			<path class="line empty" d="M-288.9,302.1c0.1,0.1,0.1,0.2,0.1,0.3
						c0,0.5-0.4,0.9-1,0.9c-0.5,0-1-0.4-1-0.9c0-0.1,0-0.2,0.1-0.3c-0.4-0.2-0.7-0.6-0.7-1c0-0.7,0.7-1.2,1.6-1.2
						c0.9,0,1.6,0.5,1.6,1.2C-288.2,301.5-288.5,301.8-288.9,302.1L-288.9,302.1z"></path>
			<path class="color" d="M-290.6,300.1c0,0,0.9,0.2,0.7,1.1s-0.1,0.9,0,0.9
				c0.1,0,0.7,0.4,0.7,0.6c0,0.2-0.2,0.1-0.3,0.3c0,0.2,0.3,0.3,0.5-0.1s0.3-0.3,0.1-0.8c-0.2-0.5,0.5,0.3,0.7-1
				S-290.2,299.5-290.6,300.1L-290.6,300.1z"></path>
			<path class="line" d="M-288.9,302.1c0.1,0.1,0.1,0.2,0.1,0.3
						c0,0.5-0.4,0.9-1,0.9c-0.5,0-1-0.4-1-0.9c0-0.1,0-0.2,0.1-0.3c-0.4-0.2-0.7-0.6-0.7-1c0-0.7,0.7-1.2,1.6-1.2
						c0.9,0,1.6,0.5,1.6,1.2C-288.2,301.5-288.5,301.8-288.9,302.1L-288.9,302.1z"></path>
			<polyline class="line" points="-287.4,299.6 -290,299.6 -290,299.8 			"></polyline>
		</g>
		<g transform="matrix(2.4994543,0,0,2.712815,722.49963,-815.78344)">
			<path class="white" d="M-288.5,301.5c0.1,0.1,0.1,0.2,0.1,0.3
						c0,0.5-0.4,0.9-1,0.9c-0.5,0-1-0.4-1-0.9c0-0.1,0-0.2,0.1-0.3c-0.4-0.2-0.7-0.6-0.7-1c0-0.7,0.7-1.2,1.6-1.2s1.6,0.5,1.6,1.2
						C-287.9,300.9-288.1,301.3-288.5,301.5L-288.5,301.5z"></path>
			<path class="line empty" d="M-288.5,301.5c0.1,0.1,0.1,0.2,0.1,0.3
						c0,0.5-0.4,0.9-1,0.9c-0.5,0-1-0.4-1-0.9c0-0.1,0-0.2,0.1-0.3c-0.4-0.2-0.7-0.6-0.7-1c0-0.7,0.7-1.2,1.6-1.2s1.6,0.5,1.6,1.2
						C-287.9,300.9-288.1,301.3-288.5,301.5L-288.5,301.5z"></path>
			<path class="color" d="M-290.3,299.5c0,0,0.9,0.2,0.7,1.1
				c-0.2,0.9-0.1,0.9,0,0.9s0.7,0.4,0.7,0.6c0,0.2-0.2,0.1-0.3,0.3c0,0.2,0.3,0.3,0.5-0.1s0.3-0.3,0.1-0.8c-0.2-0.5,0.5,0.3,0.7-1
				S-289.8,298.9-290.3,299.5L-290.3,299.5z"></path>
			<path class="line" d="M-288.5,301.5c0.1,0.1,0.1,0.2,0.1,0.3
						c0,0.5-0.4,0.9-1,0.9c-0.5,0-1-0.4-1-0.9c0-0.1,0-0.2,0.1-0.3c-0.4-0.2-0.7-0.6-0.7-1c0-0.7,0.7-1.2,1.6-1.2s1.6,0.5,1.6,1.2
						C-287.9,300.9-288.1,301.3-288.5,301.5L-288.5,301.5z"></path>
			<polyline class="line" points="-287.1,299.1 -289.7,299.1 -289.7,299.3 			"></polyline>
		</g>
		<g transform="matrix(2.4994543,0,0,2.712815,730.9208,-815.97482)">
			<path class="white" d="M-289.3,301.5c0.1,0.1,0.1,0.2,0.1,0.3
						c0,0.5-0.4,0.9-1,0.9c-0.5,0-1-0.4-1-0.9c0-0.1,0-0.2,0.1-0.3c-0.4-0.2-0.7-0.6-0.7-1c0-0.7,0.7-1.2,1.6-1.2
						c0.9,0,1.6,0.5,1.6,1.2C-288.6,300.9-288.9,301.2-289.3,301.5L-289.3,301.5z"></path>
			<path class="line empty" d="M-289.3,301.5c0.1,0.1,0.1,0.2,0.1,0.3
						c0,0.5-0.4,0.9-1,0.9c-0.5,0-1-0.4-1-0.9c0-0.1,0-0.2,0.1-0.3c-0.4-0.2-0.7-0.6-0.7-1c0-0.7,0.7-1.2,1.6-1.2
						c0.9,0,1.6,0.5,1.6,1.2C-288.6,300.9-288.9,301.2-289.3,301.5L-289.3,301.5z"></path>
			<path class="color" d="M-291.1,299.4c0,0,0.9,0.2,0.7,1.1
				c-0.2,0.9-0.1,0.9,0,0.9s0.7,0.4,0.7,0.6c0,0.2-0.2,0.1-0.3,0.3c0,0.2,0.3,0.3,0.5-0.1s0.3-0.3,0.1-0.8c-0.2-0.5,0.5,0.3,0.7-1
				S-290.6,298.9-291.1,299.4L-291.1,299.4z"></path>
			<path class="line" d="M-289.3,301.5c0.1,0.1,0.1,0.2,0.1,0.3
						c0,0.5-0.4,0.9-1,0.9c-0.5,0-1-0.4-1-0.9c0-0.1,0-0.2,0.1-0.3c-0.4-0.2-0.7-0.6-0.7-1c0-0.7,0.7-1.2,1.6-1.2
						c0.9,0,1.6,0.5,1.6,1.2C-288.6,300.9-288.9,301.2-289.3,301.5L-289.3,301.5z"></path>
			<polyline class="line" points="-287.8,299 -290.5,299 -290.5,299.2 			"></polyline>
		</g>
		<g transform="matrix(2.4994543,0,0,2.712815,717.71487,-812.5298)">
			<path class="white" d="M-287.8,298.7c0.1,0.1,0.1,0.2,0.1,0.3
						c0,0.5-0.4,0.9-1,0.9c-0.5,0-1-0.4-1-0.9c0-0.1,0-0.2,0.1-0.3c-0.4-0.2-0.7-0.6-0.7-1c0-0.7,0.7-1.2,1.6-1.2s1.6,0.5,1.6,1.2
						C-287.1,298.1-287.4,298.5-287.8,298.7L-287.8,298.7z"></path>
			<path class="line empty" d="M-287.8,298.7c0.1,0.1,0.1,0.2,0.1,0.3
						c0,0.5-0.4,0.9-1,0.9c-0.5,0-1-0.4-1-0.9c0-0.1,0-0.2,0.1-0.3c-0.4-0.2-0.7-0.6-0.7-1c0-0.7,0.7-1.2,1.6-1.2s1.6,0.5,1.6,1.2
						C-287.1,298.1-287.4,298.5-287.8,298.7L-287.8,298.7z"></path>
			<path class="color" d="M-289.5,296.7c0,0,0.9,0.2,0.7,1.1
				c-0.2,0.9-0.1,0.9,0,0.9c0.1,0,0.7,0.4,0.7,0.6c0,0.2-0.2,0.1-0.3,0.3c0,0.2,0.3,0.3,0.5-0.1s0.3-0.3,0.1-0.8
				c-0.2-0.5,0.5,0.3,0.7-1S-289.1,296.1-289.5,296.7L-289.5,296.7z"></path>
			<path class="line" d="M-287.8,298.7c0.1,0.1,0.1,0.2,0.1,0.3
						c0,0.5-0.4,0.9-1,0.9c-0.5,0-1-0.4-1-0.9c0-0.1,0-0.2,0.1-0.3c-0.4-0.2-0.7-0.6-0.7-1c0-0.7,0.7-1.2,1.6-1.2s1.6,0.5,1.6,1.2
						C-287.1,298.1-287.4,298.5-287.8,298.7L-287.8,298.7z"></path>
			<polyline class="line" points="-286.3,296.3 -288.9,296.3 -288.9,296.5 			"></polyline>
		</g>
		<g transform="matrix(2.4994543,0,0,2.712815,727.66717,-811.95562)">
			<path class="white" d="M-289.4,298.2c0.1,0.1,0.1,0.2,0.1,0.3
						c0,0.5-0.4,0.9-1,0.9c-0.5,0-1-0.4-1-0.9c0-0.1,0-0.2,0.1-0.3c-0.4-0.2-0.7-0.6-0.7-1c0-0.7,0.7-1.2,1.6-1.2s1.6,0.5,1.6,1.2
						C-288.7,297.6-289,297.9-289.4,298.2L-289.4,298.2z"></path>
			<path class="line empty" d="M-289.4,298.2c0.1,0.1,0.1,0.2,0.1,0.3
						c0,0.5-0.4,0.9-1,0.9c-0.5,0-1-0.4-1-0.9c0-0.1,0-0.2,0.1-0.3c-0.4-0.2-0.7-0.6-0.7-1c0-0.7,0.7-1.2,1.6-1.2s1.6,0.5,1.6,1.2
						C-288.7,297.6-289,297.9-289.4,298.2L-289.4,298.2z"></path>
			<path class="color" d="M-291.1,296.2c0,0,0.9,0.2,0.7,1.1
				c-0.2,0.9-0.1,0.9,0,0.9s0.7,0.4,0.7,0.6c0,0.2-0.2,0.1-0.3,0.3c0,0.2,0.3,0.3,0.5-0.1s0.3-0.3,0.1-0.8c-0.2-0.5,0.5,0.3,0.7-1
				S-290.7,295.6-291.1,296.2L-291.1,296.2z"></path>
			<path class="line" d="M-289.4,298.2c0.1,0.1,0.1,0.2,0.1,0.3
						c0,0.5-0.4,0.9-1,0.9c-0.5,0-1-0.4-1-0.9c0-0.1,0-0.2,0.1-0.3c-0.4-0.2-0.7-0.6-0.7-1c0-0.7,0.7-1.2,1.6-1.2s1.6,0.5,1.6,1.2
						C-288.7,297.6-289,297.9-289.4,298.2L-289.4,298.2z"></path>
			<polyline class="line" points="-287.9,295.7 -290.5,295.7 -290.5,295.9 			"></polyline>
		</g>
	</symbol>
	<symbol id="fenyves" class="fenyves" viewBox="-12.8 -12.8 25.5 25.5">
		<rect class="line" x="-12.5" y="-12.5" width="25" height="25"></rect>
		<g>
			<g transform="matrix(1.8397516,0,0,1.8397516,943.77437,-474.50985)">
				<path class="line white" d="M-511.8,262.1c0,0-0.9,0.3-0.9-1.1c0-1.5-0.7,0-0.7-1
				c0-1,0-2,2.3-2.3c2.3-0.3,2.9,1.1,2.9,1.1s0.7,1-0.1,1.4c-0.8,0.4,0.3,1-0.9,1.2c-1.3,0.2,0.8,1.1-0.7,1.1s0.3,1.2-0.7,1.2
				C-511.7,263.6-511.8,262.1-511.8,262.1L-511.8,262.1z"></path>
				<polyline class="line" points="-510.9,257.9 -510.9,257.1 -507.8,257.1 			"></polyline>
				<path class="empty" d="M-510.6,262.6v0.3C-510.7,262.8-510.7,262.7-510.6,262.6
				z"></path>
				<path class="color" d="M-508.4,260.1c-0.8,0.4,0.3,1-0.9,1.2
				c-1.3,0.2,0.8,1.1-0.7,1.1c-0.4,0-0.5,0.1-0.6,0.2c0,0-2-3.9,0-5c1-0.5,2.3,1.2,2.3,1.2S-507.6,259.7-508.4,260.1L-508.4,260.1z"></path>
				<path class="line" d="M-511.8,262.1c0,0-0.9,0.3-0.9-1.1c0-1.5-0.7,0-0.7-1
				c0-1,0-2,2.3-2.3c2.3-0.3,2.9,1.1,2.9,1.1s0.7,1-0.1,1.4c-0.8,0.4,0.3,1-0.9,1.2c-1.3,0.2,0.8,1.1-0.7,1.1s0.3,1.2-0.7,1.2
				C-511.7,263.6-511.8,262.1-511.8,262.1L-511.8,262.1z"></path>
			</g>
			<g transform="matrix(1.9069914,0,0,1.7989557,922.3865,-463.54522)">
				<path class="line white" d="M-486.5,261.9c0,0-0.9,0.3-0.9-1.1c-0.1-1.5-0.7,0-0.7-1
				c0-1,0-2,2.3-2.3c2.3-0.3,2.9,1.1,2.9,1.1s0.7,1-0.1,1.4c-0.8,0.4,0.3,1-0.9,1.2c-1.3,0.2,0.8,1.1-0.7,1.1s0.3,1.2-0.7,1.2
				C-486.5,263.4-486.5,261.9-486.5,261.9L-486.5,261.9z"></path>
				<polyline class="line" points="-485.7,257.7 -485.7,256.9 -482.5,256.9 			"></polyline>
				<path class="empty" d="M-485.4,262.4v0.3C-485.4,262.6-485.4,262.5-485.4,262.4
				z"></path>
				<path class="color" d="M-483.1,259.9c-0.8,0.4,0.3,1-0.9,1.2
				c-1.3,0.2,0.8,1.1-0.7,1.1c-0.4,0-0.5,0.1-0.6,0.2c0,0-2-3.9,0-5c1-0.5,2.3,1.2,2.3,1.2S-482.3,259.5-483.1,259.9L-483.1,259.9z"></path>
				<path class="line" d="M-486.5,261.9c0,0-0.9,0.3-0.9-1.1c-0.1-1.5-0.7,0-0.7-1
				c0-1,0-2,2.3-2.3c2.3-0.3,2.9,1.1,2.9,1.1s0.7,1-0.1,1.4c-0.8,0.4,0.3,1-0.9,1.2c-1.3,0.2,0.8,1.1-0.7,1.1s0.3,1.2-0.7,1.2
				C-486.5,263.4-486.5,261.9-486.5,261.9L-486.5,261.9z"></path>
			</g>
			<g transform="matrix(1.3907665,0,0,1.3907665,1026.0493,-310.8473)">
				<path class="line white" d="M-744.1,225.2c0,0-0.9,0.3-0.9-1.1c-0.1-1.5-0.7,0-0.7-1
				c0-1,0-2,2.3-2.3c2.3-0.3,2.9,1.1,2.9,1.1s0.7,1-0.1,1.4c-0.8,0.4,0.3,1-0.9,1.2c-1.3,0.2,0.8,1.1-0.7,1.1s0.3,1.2-0.7,1.2
				C-744,226.7-744.1,225.2-744.1,225.2L-744.1,225.2z"></path>
				<polyline class="line" points="-743.2,221 -743.2,220.2 -740.1,220.2 			"></polyline>
				<path class="empty" d="M-742.9,225.7v0.3C-743,225.9-743,225.8-742.9,225.7z"></path>
				<path class="color" d="M-740.7,223.2c-0.8,0.4,0.3,1-0.9,1.2
				c-1.3,0.2,0.8,1.1-0.7,1.1c-0.4,0-0.5,0.1-0.6,0.2c0,0-2-3.9,0-5c1-0.5,2.3,1.2,2.3,1.2S-739.9,222.8-740.7,223.2L-740.7,223.2z"></path>
				<path class="line" d="M-744.1,225.2c0,0-0.9,0.3-0.9-1.1c-0.1-1.5-0.7,0-0.7-1
				c0-1,0-2,2.3-2.3c2.3-0.3,2.9,1.1,2.9,1.1s0.7,1-0.1,1.4c-0.8,0.4,0.3,1-0.9,1.2c-1.3,0.2,0.8,1.1-0.7,1.1s0.3,1.2-0.7,1.2
				C-744,226.7-744.1,225.2-744.1,225.2L-744.1,225.2z"></path>
			</g>
			<g transform="matrix(1.8397516,0,0,1.8397516,940.19798,-468.9539)">
				<path class="line white" d="M-511.7,256.4c0,0-0.9,0.3-0.9-1.1c0-1.5-0.7,0-0.7-1
				c-0.1-1-0.1-2,2.3-2.3c2.3-0.3,2.9,1.1,2.9,1.1s0.7,1-0.1,1.4c-0.8,0.4,0.3,1-0.9,1.2c-1.3,0.2,0.8,1.1-0.7,1.1s0.3,1.2-0.7,1.2
				C-511.7,257.9-511.7,256.4-511.7,256.4L-511.7,256.4z"></path>
				<polyline class="line" points="-510.9,252.1 -510.9,251.3 -507.7,251.3 			"></polyline>
				<path class="empty" d="M-510.6,256.8v0.3C-510.6,257-510.6,256.9-510.6,256.8z"></path>
				<path class="color" d="M-508.3,254.4c-0.8,0.4,0.3,1-0.9,1.2
				c-1.3,0.2,0.8,1.1-0.7,1.1c-0.4,0-0.5,0.1-0.6,0.2c0,0-2-3.9,0-5c1-0.5,2.3,1.2,2.3,1.2S-507.5,254-508.3,254.4L-508.3,254.4z"></path>
				<path class="line" d="M-511.7,256.4c0,0-0.9,0.3-0.9-1.1c0-1.5-0.7,0-0.7-1
				c-0.1-1-0.1-2,2.3-2.3c2.3-0.3,2.9,1.1,2.9,1.1s0.7,1-0.1,1.4c-0.8,0.4,0.3,1-0.9,1.2c-1.3,0.2,0.8,1.1-0.7,1.1s0.3,1.2-0.7,1.2
				C-511.7,257.9-511.7,256.4-511.7,256.4L-511.7,256.4z"></path>
			</g>
			<g transform="matrix(1.9069914,0,0,1.7989557,918.18949,-451.75033)">
				<path class="line white" d="M-484.5,250.6c0,0-0.9,0.3-0.9-1.1c-0.1-1.5-0.7,0-0.7-1
				c0-1,0-2,2.3-2.3c2.3-0.3,2.9,1.1,2.9,1.1s0.7,1-0.1,1.4c-0.8,0.4,0.3,1-0.9,1.2c-1.3,0.2,0.8,1.1-0.7,1.1s0.3,1.2-0.7,1.2
				C-484.4,252.1-484.5,250.6-484.5,250.6L-484.5,250.6z"></path>
				<polyline class="line" points="-483.6,246.3 -483.6,245.6 -480.5,245.6 			"></polyline>
				<path class="empty" d="M-483.3,251.1v0.3C-483.4,251.3-483.4,251.2-483.3,251.1
				z"></path>
				<path class="color" d="M-481.1,248.6c-0.8,0.4,0.3,1-0.9,1.2
				c-1.3,0.2,0.8,1.1-0.7,1.1c-0.4,0-0.5,0.1-0.6,0.2c0,0-2-3.9,0-5c1-0.5,2.3,1.2,2.3,1.2S-480.3,248.2-481.1,248.6L-481.1,248.6z"></path>
				<path class="line" d="M-484.5,250.6c0,0-0.9,0.3-0.9-1.1c-0.1-1.5-0.7,0-0.7-1
				c0-1,0-2,2.3-2.3c2.3-0.3,2.9,1.1,2.9,1.1s0.7,1-0.1,1.4c-0.8,0.4,0.3,1-0.9,1.2c-1.3,0.2,0.8,1.1-0.7,1.1s0.3,1.2-0.7,1.2
				C-484.4,252.1-484.5,250.6-484.5,250.6L-484.5,250.6z"></path>
			</g>
			<g transform="matrix(1.3907665,0,0,1.3907665,1042.4296,-306.47815)">
				<path class="line white" d="M-745.5,220.7c0,0-0.9,0.3-0.9-1.1c-0.1-1.5-0.7,0-0.7-1
				c0-1,0-2,2.3-2.3c2.3-0.3,2.9,1.1,2.9,1.1s0.7,1-0.1,1.4c-0.8,0.4,0.3,1-0.9,1.2c-1.3,0.2,0.8,1.1-0.7,1.1s0.3,1.2-0.7,1.2
				C-745.5,222.2-745.5,220.7-745.5,220.7L-745.5,220.7z"></path>
				<polyline class="line" points="-744.7,216.4 -744.7,215.6 -741.5,215.6 			"></polyline>
				<path class="empty" d="M-744.4,221.1v0.3C-744.4,221.4-744.4,221.2-744.4,221.1
				z"></path>
				<path class="color" d="M-742.1,218.7c-0.8,0.4,0.3,1-0.9,1.2
				c-1.3,0.2,0.8,1.1-0.7,1.1c-0.4,0-0.5,0.1-0.6,0.2c0,0-2-3.9,0-5c1-0.5,2.3,1.2,2.3,1.2S-741.3,218.3-742.1,218.7L-742.1,218.7z"></path>
				<path class="line" d="M-745.5,220.7c0,0-0.9,0.3-0.9-1.1c-0.1-1.5-0.7,0-0.7-1
				c0-1,0-2,2.3-2.3c2.3-0.3,2.9,1.1,2.9,1.1s0.7,1-0.1,1.4c-0.8,0.4,0.3,1-0.9,1.2c-1.3,0.2,0.8,1.1-0.7,1.1s0.3,1.2-0.7,1.2
				C-745.5,222.2-745.5,220.7-745.5,220.7L-745.5,220.7z"></path>
			</g>
			<g transform="matrix(1.3907665,0,0,1.3907665,1039.8455,-317.54595)">
				<path class="line white" d="M-746.5,225.9c0,0-0.9,0.3-0.9-1.1c0-1.5-0.7,0-0.7-1
				c-0.1-1-0.1-2,2.3-2.3c2.3-0.3,2.9,1.1,2.9,1.1s0.7,1-0.1,1.4c-0.8,0.4,0.3,1-0.9,1.2c-1.3,0.2,0.8,1.1-0.7,1.1s0.3,1.2-0.7,1.2
				C-746.4,227.3-746.5,225.9-746.5,225.9L-746.5,225.9z"></path>
				<polyline class="line" points="-745.6,221.6 -745.6,220.8 -742.5,220.8 			"></polyline>
				<path class="empty" d="M-745.3,226.3v0.3C-745.4,226.5-745.4,226.4-745.3,226.3
				z"></path>
				<path class="color" d="M-743.1,223.9c-0.8,0.4,0.3,1-0.9,1.2
				c-1.3,0.2,0.8,1.1-0.7,1.1c-0.4,0-0.5,0.1-0.6,0.2c0,0-2-3.9,0-5c1-0.5,2.3,1.2,2.3,1.2S-742.3,223.5-743.1,223.9L-743.1,223.9z"></path>
				<path class="line" d="M-746.5,225.9c0,0-0.9,0.3-0.9-1.1c0-1.5-0.7,0-0.7-1
				c-0.1-1-0.1-2,2.3-2.3c2.3-0.3,2.9,1.1,2.9,1.1s0.7,1-0.1,1.4c-0.8,0.4,0.3,1-0.9,1.2c-1.3,0.2,0.8,1.1-0.7,1.1s0.3,1.2-0.7,1.2
				C-746.4,227.3-746.5,225.9-746.5,225.9L-746.5,225.9z"></path>
			</g>
		</g>
	</symbol>
	<symbol id="ho" class="ho" viewBox="-12.8 -12.8 25.5 25.5">
		<rect x="-12.5" y="-12.5" class="line" width="25" height="25"></rect>
		<path class="line white" d="M5.4-1.8C-2.9,4.6-9.9-1.8-9.9-1.8"></path>
		<path class="st9" d="M-3.8-2c0,0,8-0.6,8.8,0.1c0.8,0.6-6.3,3.4-6.3,2.7
		C-1.1-1.5-3.8-2-3.8-2z"></path>
		<path class="line" d="M5.4-1.8C-2.9,4.6-9.9-1.8-9.9-1.8"></path>
		<path class="line white" d="M9.7,4.6C1.4,11-5.6,4.7-5.6,4.7"></path>
		<path class="st9" d="M0.6,4.5c0,0,8-0.6,8.8,0.1C10.2,5.2,3.1,8,3.1,7.3
		C3.2,5,0.6,4.5,0.6,4.5z"></path>
		<path class="line" d="M9.7,4.6C1.4,11-5.6,4.7-5.6,4.7"></path>
		<path class="line white" d="M10.9-7.9C2.6-1.4-4.3-7.8-4.3-7.8"></path>
		<path class="st9" d="M1.8-8c0,0,8-0.6,8.8,0.1c0.8,0.6-6.3,3.4-6.3,2.7
		C4.4-7.5,1.8-8,1.8-8z"></path>
		<path id="path6492_13_" class="line" d="M10.9-7.9C2.6-1.4-4.3-7.8-4.3-7.8"></path>
	</symbol>
	<symbol id="mezo" class="mezo" viewBox="-12.8 -12.8 25.5 25.5">
		<rect x="-12.5" y="-12.5" class="line" width="25" height="25"></rect>
		<g transform="matrix(3.5238198,0,0,3.5238198,654.40658,-593.45466)">
			<path class="line" d="M-188.9,167.3c0,0,0.7-0.4,0.7-0.7"></path>
			<path class="line" d="M-187.9,167.8c0,0,0.5-0.7,0.5-1"></path>
			<path class="line" d="M-186.5,167.9c0,0-0.3-0.9-0.1-1"></path>
			<path class="line" d="M-185.6,167.5c0,0-0.6-0.6-0.6-0.8"></path>
			<line class="line" x1="-188.2" y1="166" x2="-186" y2="166"></line>
		</g>
		<g id="g4125_2_" transform="matrix(3.5238198,0,0,3.5238198,654.40658,-595.45466)">
			<path class="line" d="M-186.3,169.8c0,0,0.6-0.4,0.6-0.7"></path>
			<path class="line" d="M-185.6,170.5c0,0,0.6-1,0.6-1.3"></path>
			<line class="line" x1="-184.5" y1="171.1" x2="-184.5" y2="169.3"></line>
			<path class="line" d="M-183.2,170.4c0,0-0.7-0.9-0.6-1.3"></path>
			<line class="line" x1="-185.5" y1="168.6" x2="-183.6" y2="168.6"></line>
		</g>
	</symbol>
	<symbol id="mocsar" class="mocsar" viewBox="-12.8 -12.8 25.5 25.5">
		<rect x="-12.5" y="-12.5" class="line" width="25" height="25"></rect>
		<g transform="matrix(1.4213098,0,0,1.4213098,858.05978,-432.03247)">
			<path class="line white" d="M-605.4,307.3c0-1.9-1.1-2.8-2.5-2.8
			c-1.4,0-2.5,1-2.5,2.8c0,1.9,1.1,3.9,2.5,3.9C-606.5,311.2-605.4,309.1-605.4,307.3z"></path>
			<path class="color" d="M-607.3,311c0,0,0-1.4-0.3-1.8c-0.3-0.3-0.3-1.4-0.1-1.7
			c0.2-0.3,0.7-0.7,0.4-1c-0.3-0.3-0.5-0.4-0.5-0.8c0-0.4,0.7-0.6-0.3-0.7c-1-0.2-1-0.2-1-0.2s1.2-0.8,2.4-0.2
			c1.3,0.6,1.5,2.7,1.5,2.7S-605,309.2-607.3,311L-607.3,311z"></path>
			<path class="line" d="M-605.4,307.3c0-1.9-1.1-2.8-2.5-2.8
			c-1.4,0-2.5,1-2.5,2.8c0,1.9,1.1,3.9,2.5,3.9C-606.5,311.2-605.4,309.1-605.4,307.3z"></path>
			<rect x="-608.3" y="302.5" class="color line" width="1" height="1.9"></rect>
			<line class="line" x1="-608.3" y1="302.5" x2="-605.3" y2="302.5"></line>
		</g>
		<g transform="translate(-73.041251,69.640228)">
			<g transform="matrix(3.5238198,0,0,3.5238198,584.47619,-656.42593)">
				<path class="line" d="M-144.9,168.3c0,0-0.1-0.5-0.1-0.6
				c0-0.1,0.4-0.6,0.4-0.6"></path>
				<path class="line" d="M-144.1,168.9c0,0-0.1-1.1,0.2-1.6"></path>
				<path class="line" d="M-143.2,168c0,0,0-0.8-0.2-1"></path>
			</g>
			<g transform="matrix(3.5238198,0,0,3.5238198,584.47619,-656.42593)">
				<path class="line" d="M-144.3,165.6c0,0,0-0.8,0.3-0.8
				c0.3-0.1,0.3-0.5,0.2-0.7"></path>
				<path class="line" d="M-143.6,165.3c0,0,0.4-0.3,0.3-1.1"></path>
				<path class="line" d="M-142.6,165.2c0,0-0.1-0.8-0.1-0.9"></path>
			</g>
			<g transform="matrix(3.5238198,0,0,3.5238198,584.47619,-656.42593)">
				<path class="line" d="M-147.6,164.9c0,0,0-0.6,0.2-0.7
				c0.2-0.1,0.2-0.4,0.3-0.5"></path>
				<path class="line" d="M-146.8,165.3c0,0-0.1-0.5,0-0.8
				c0.1-0.3,0.2-0.4,0.2-0.6"></path>
				<path class="line" d="M-146.2,164.6c0,0,0.2-0.5,0.2-0.8"></path>
			</g>
		</g>
	</symbol>
	<symbol id="sziklak" class="szikla" viewBox="-12.8 -12.8 25.5 25.5">
		<rect x="-12.5" y="-12.5" class="st14" width="25" height="25"></rect>
		<g transform="translate(-40.336416,26.821631)">
			
			<g transform="matrix(0.8181018,0,0,0.8181018,1093.6045,186.32896)">
				<path class="line white" d="M-1286.8-264.2c0,0-6.2,9.8-7.8,6.2
				c-1.7-3.6-6.4-6.3-6.4-6.3"></path>
				<path class="color" d="M-1294.1-257.3c0,0,2.1-6.3-0.6-7s7.9,0,7.9,0
				S-1292.1-256-1294.1-257.3z"></path>
				<path class="line" d="M-1286.8-264.2c0,0-6.2,9.8-7.8,6.2
				c-1.7-3.6-6.4-6.3-6.4-6.3"></path>
			</g>
			
			<g transform="matrix(0.8181018,0,0,1.806789,1098.2048,-142.11308)">
				<path class="line white" d="M-1286.8,60.9c0,0-6.2,9.8-7.8,6.2
				c-1.7-3.6-6.4-6.3-6.4-6.3"></path>
				<path class="color" d="M-1294.1,67.9c0,0,2.1-6.3-0.6-7s7.9,0,7.9,0
				S-1292.1,69.1-1294.1,67.9z"></path>
				<path class="line" d="M-1286.8,60.9c0,0-6.2,9.8-7.8,6.2
				c-1.7-3.6-6.4-6.3-6.4-6.3"></path>
			</g>
			
			<g transform="matrix(0.8181018,0,0,0.8181018,1104.8962,190.55303)">
				<path class="line white" d="M-1286.8-274.6c0,0-6.2,9.8-7.8,6.2
				c-1.7-3.6-6.4-6.3-6.4-6.3"></path>
				<path class="color" d="M-1294.1-267.6c0,0,2.1-6.3-0.6-7s7.9,0,7.9,0
				S-1292.1-266.4-1294.1-267.6z"></path>
				<path class="line" d="M-1286.8-274.6c0,0-6.2,9.8-7.8,6.2
				c-1.7-3.6-6.4-6.3-6.4-6.3"></path>
			</g>
		</g>
	</symbol>
	
	<symbol id="tenger" class="tenger" viewBox="-12.8 -12.8 25.5 25.5">
		<rect x="-12.5" y="-12.5" class="line" width="25" height="25"></rect>
	</symbol>
	<symbol id="tengerpart" class="tengerpart" viewBox="-12.8 -12.8 25.5 25.5">
		<rect x="-12.5" y="-12.5" class="line" width="25" height="25"></rect>
		<path class="line white" d="M10-2C1.8,4.4-5.2-1.9-5.2-1.9"></path>
		<path class="st18" d="M0.9-2.1c0,0,8-0.6,8.8,0.1c0.8,0.6-6.3,3.4-6.3,2.7
			C3.5-1.6,0.9-2.1,0.9-2.1z"></path>
		<path class="line" d="M10-2C1.8,4.4-5.2-1.9-5.2-1.9"></path>
		<path class="line white" d="M5.4,4.4C-2.9,10.9-9.9,4.5-9.9,4.5"></path>
		<path class="st18" d="M-3.8,4.3c0,0,8-0.6,8.8,0.1C5.8,5-1.3,7.8-1.2,7.1
			C-1.1,4.8-3.8,4.3-3.8,4.3z"></path>
		<path class="line" d="M5.4,4.4C-2.9,10.9-9.9,4.5-9.9,4.5"></path>
		<path class="line white" d="M7.6-7.8C-0.7-1.4-7.6-7.8-7.6-7.8"></path>
		<path class="st18" d="M-1.5-7.9c0,0,8-0.6,8.8,0.1C8.1-7.2,1-4.5,1-5.1
			C1.1-7.4-1.5-7.9-1.5-7.9z"></path>
		<path class="line" d="M7.6-7.8C-0.7-1.4-7.6-7.8-7.6-7.8"></path>
	</symbol>
	<symbol id="torpefenyves" class="torpefenyves" viewBox="-12.8 -12.8 25.5 25.5">
		<rect x="-12.5" y="-12.5" class="line" width="25" height="25"></rect>
		<g id="g5310_8_" transform="matrix(0.7559534,0,0,0.7559534,201.6952,-252.57826)">
			<path class="line white" d="M-275.9,330.9c0,0-1.6,0.6-1.7-2.1
				c-0.1-2.7-1.3-0.1-1.4-1.9c-0.1-1.8-0.1-3.8,4.2-4.3c4.3-0.6,5.3,2.1,5.3,2.1s1.3,1.8-0.2,2.6c-1.5,0.7,0.6,1.8-1.7,2.2
				c-2.4,0.4,1.6,2-1.3,2c-2.8,0,0.6,2.2-1.3,2.2C-275.8,333.6-275.9,330.9-275.9,330.9L-275.9,330.9z"></path>
			<polyline class="line" points="-274.3,323 -274.3,321.6 -268.6,321.6 			"></polyline>
			<path class="empty" d="M-273.8,331.7v0.6C-273.9,332.1-273.9,331.9-273.8,331.7
				z"></path>
			<path class="color" d="M-269.7,327.2c-1.5,0.7,0.6,1.8-1.7,2.2
				c-2.4,0.4,1.6,2-1.3,2c-0.7,0-1,0.1-1.1,0.3c0,0-3.6-7.2,0-9.3c1.8-1,4.3,2.2,4.3,2.2S-268.2,326.5-269.7,327.2L-269.7,327.2z"></path>
			<path class="line" d="M-275.9,330.9c0,0-1.6,0.6-1.7-2.1
				c-0.1-2.7-1.3-0.1-1.4-1.9c-0.1-1.8-0.1-3.8,4.2-4.3c4.3-0.6,5.3,2.1,5.3,2.1s1.3,1.8-0.2,2.6c-1.5,0.7,0.6,1.8-1.7,2.2
				c-2.4,0.4,1.6,2-1.3,2c-2.8,0,0.6,2.2-1.3,2.2C-275.8,333.6-275.9,330.9-275.9,330.9L-275.9,330.9z"></path>
		</g>
		<g transform="matrix(0.7559534,0,0,0.7559534,201.6952,-252.57826)">
			<path class="line white" d="M-261.9,339.2c0,0-1.6,0.6-1.7-2.1
				c-0.1-2.7-1.3-0.1-1.4-1.9c-0.1-1.8-0.1-3.8,4.2-4.3c4.3-0.6,5.3,2.1,5.3,2.1s1.3,1.8-0.2,2.6c-1.5,0.7,0.6,1.8-1.7,2.2
				c-2.4,0.4,1.6,2-1.3,2c-2.8,0,0.6,2.2-1.3,2.2C-261.8,341.9-261.9,339.2-261.9,339.2L-261.9,339.2z"></path>
			<polyline class="line" points="-260.4,331.4 -260.4,329.9 -254.6,329.9 			"></polyline>
			<path class="empty" d="M-259.8,340v0.6C-259.9,340.4-259.9,340.2-259.8,340z"></path>
			<path class="color" d="M-255.7,335.5c-1.5,0.7,0.6,1.8-1.7,2.2
				c-2.4,0.4,1.6,2-1.3,2c-0.7,0-1,0.1-1.1,0.3c0,0-3.6-7.2,0-9.3c1.8-1,4.3,2.2,4.3,2.2S-254.2,334.8-255.7,335.5L-255.7,335.5z"></path>
			<path class="line" d="M-261.9,339.2c0,0-1.6,0.6-1.7-2.1
				c-0.1-2.7-1.3-0.1-1.4-1.9c-0.1-1.8-0.1-3.8,4.2-4.3c4.3-0.6,5.3,2.1,5.3,2.1s1.3,1.8-0.2,2.6c-1.5,0.7,0.6,1.8-1.7,2.2
				c-2.4,0.4,1.6,2-1.3,2c-2.8,0,0.6,2.2-1.3,2.2C-261.8,341.9-261.9,339.2-261.9,339.2L-261.9,339.2z"></path>
		</g>
		<g transform="matrix(0.7559534,0,0,0.7559534,201.6952,-252.57826)">
			<path class="line white" d="M-274.5,343.9c0,0-1.6,0.6-1.7-2.1
				c-0.1-2.7-1.3-0.1-1.4-1.9c-0.1-1.8-0.1-3.8,4.2-4.3c4.3-0.6,5.3,2.1,5.3,2.1s1.3,1.8-0.2,2.6c-1.5,0.7,0.6,1.8-1.7,2.2
				c-2.4,0.4,1.6,2-1.3,2c-2.8,0,0.6,2.2-1.3,2.2C-274.4,346.7-274.5,343.9-274.5,343.9L-274.5,343.9z"></path>
			<polyline class="line" points="-272.9,336.1 -272.9,334.6 -267.2,334.6 			"></polyline>
			<path class="empty" d="M-272.4,344.8v0.6C-272.5,345.1-272.5,344.9-272.4,344.8
				z"></path>
			<path class="color" d="M-268.3,340.3c-1.5,0.7,0.6,1.8-1.7,2.2
				c-2.4,0.4,1.6,2-1.3,2c-0.7,0-1,0.1-1.1,0.3c0,0-3.6-7.2,0-9.3c1.8-1,4.3,2.2,4.3,2.2S-266.8,339.5-268.3,340.3L-268.3,340.3z"></path>
			<path class="line" d="M-274.5,343.9c0,0-1.6,0.6-1.7-2.1
				c-0.1-2.7-1.3-0.1-1.4-1.9c-0.1-1.8-0.1-3.8,4.2-4.3c4.3-0.6,5.3,2.1,5.3,2.1s1.3,1.8-0.2,2.6c-1.5,0.7,0.6,1.8-1.7,2.2
				c-2.4,0.4,1.6,2-1.3,2c-2.8,0,0.6,2.2-1.3,2.2C-274.4,346.7-274.5,343.9-274.5,343.9L-274.5,343.9z"></path>
		</g>
	</symbol>
	<g id="terkepContainer"><use xlink:href="#mezo" width="25.5" height="25.5" x="87.5" y="87.5"></use><use xlink:href="#mezo" width="25.5" height="25.5" x="112.5" y="37.5"></use><use xlink:href="#mezo" width="25.5" height="25.5" x="112.5" y="87.5"></use><use xlink:href="#mezo" width="25.5" height="25.5" x="112.5" y="362.5"></use><use xlink:href="#mezo" width="25.5" height="25.5" x="112.5" y="387.5"></use><use xlink:href="#mezo" width="25.5" height="25.5" x="137.5" y="62.5"></use><use xlink:href="#mezo" width="25.5" height="25.5" x="137.5" y="87.5"></use><use xlink:href="#mezo" width="25.5" height="25.5" x="137.5" y="137.5"></use><use xlink:href="#mezo" width="25.5" height="25.5" x="137.5" y="212.5"></use><use xlink:href="#mezo" width="25.5" height="25.5" x="137.5" y="362.5"></use><use xlink:href="#mezo" width="25.5" height="25.5" x="137.5" y="387.5"></use><use xlink:href="#mezo" width="25.5" height="25.5" x="162.5" y="62.5"></use><use xlink:href="#mezo" width="25.5" height="25.5" x="162.5" y="87.5"></use><use xlink:href="#mezo" width="25.5" height="25.5" x="162.5" y="112.5"></use><use xlink:href="#mezo" width="25.5" height="25.5" x="162.5" y="137.5"></use><use xlink:href="#mezo" width="25.5" height="25.5" x="162.5" y="162.5"></use><use xlink:href="#mezo" width="25.5" height="25.5" x="162.5" y="187.5"></use><use xlink:href="#mezo" width="25.5" height="25.5" x="162.5" y="212.5"></use><use xlink:href="#mezo" width="25.5" height="25.5" x="162.5" y="237.5"></use><use xlink:href="#mezo" width="25.5" height="25.5" x="162.5" y="312.5"></use><use xlink:href="#mezo" width="25.5" height="25.5" x="162.5" y="362.5"></use><use xlink:href="#mezo" width="25.5" height="25.5" x="162.5" y="387.5"></use><use xlink:href="#mezo" width="25.5" height="25.5" x="162.5" y="412.5"></use><use xlink:href="#mezo" width="25.5" height="25.5" x="187.5" y="62.5"></use><use xlink:href="#mezo" width="25.5" height="25.5" x="187.5" y="87.5"></use><use xlink:href="#mezo" width="25.5" height="25.5" x="187.5" y="112.5"></use><use xlink:href="#mezo" width="25.5" height="25.5" x="187.5" y="137.5"></use><use xlink:href="#mezo" width="25.5" height="25.5" x="187.5" y="162.5"></use><use xlink:href="#mezo" width="25.5" height="25.5" x="187.5" y="187.5"></use><use xlink:href="#mezo" width="25.5" height="25.5" x="187.5" y="212.5"></use><use xlink:href="#mezo" width="25.5" height="25.5" x="187.5" y="237.5"></use><use xlink:href="#mezo" width="25.5" height="25.5" x="187.5" y="262.5"></use><use xlink:href="#mezo" width="25.5" height="25.5" x="187.5" y="287.5"></use><use xlink:href="#mezo" width="25.5" height="25.5" x="187.5" y="312.5"></use><use xlink:href="#mezo" width="25.5" height="25.5" x="187.5" y="337.5"></use><use xlink:href="#mezo" width="25.5" height="25.5" x="187.5" y="362.5"></use><use xlink:href="#mezo" width="25.5" height="25.5" x="187.5" y="387.5"></use><use xlink:href="#mezo" width="25.5" height="25.5" x="187.5" y="412.5"></use><use xlink:href="#mezo" width="25.5" height="25.5" x="212.5" y="12.5"></use><use xlink:href="#mezo" width="25.5" height="25.5" x="212.5" y="62.5"></use><use xlink:href="#mezo" width="25.5" height="25.5" x="212.5" y="87.5"></use><use xlink:href="#mezo" width="25.5" height="25.5" x="212.5" y="112.5"></use><use xlink:href="#mezo" width="25.5" height="25.5" x="212.5" y="162.5"></use><use xlink:href="#mezo" width="25.5" height="25.5" x="212.5" y="187.5"></use><use xlink:href="#mezo" width="25.5" height="25.5" x="212.5" y="212.5"></use><use xlink:href="#mezo" width="25.5" height="25.5" x="212.5" y="237.5"></use><use xlink:href="#mezo" width="25.5" height="25.5" x="212.5" y="262.5"></use><use xlink:href="#mezo" width="25.5" height="25.5" x="212.5" y="287.5"></use><use xlink:href="#mezo" width="25.5" height="25.5" x="212.5" y="312.5"></use><use xlink:href="#mezo" width="25.5" height="25.5" x="212.5" y="337.5"></use><use xlink:href="#mezo" width="25.5" height="25.5" x="212.5" y="362.5"></use><use xlink:href="#mezo" width="25.5" height="25.5" x="212.5" y="387.5"></use><use xlink:href="#mezo" width="25.5" height="25.5" x="212.5" y="412.5"></use><use xlink:href="#mezo" width="25.5" height="25.5" x="237.5" y="62.5"></use><use xlink:href="#mezo" width="25.5" height="25.5" x="237.5" y="87.5"></use><use xlink:href="#mezo" width="25.5" height="25.5" x="237.5" y="112.5"></use><use xlink:href="#mezo" width="25.5" height="25.5" x="237.5" y="162.5"></use><use xlink:href="#mezo" width="25.5" height="25.5" x="237.5" y="187.5"></use><use xlink:href="#mezo" width="25.5" height="25.5" x="237.5" y="212.5"></use><use xlink:href="#mezo" width="25.5" height="25.5" x="237.5" y="237.5"></use><use xlink:href="#mezo" width="25.5" height="25.5" x="237.5" y="262.5"></use><use xlink:href="#mezo" width="25.5" height="25.5" x="237.5" y="287.5"></use><use xlink:href="#mezo" width="25.5" height="25.5" x="237.5" y="312.5"></use><use xlink:href="#mezo" width="25.5" height="25.5" x="237.5" y="337.5"></use><use xlink:href="#mezo" width="25.5" height="25.5" x="237.5" y="362.5"></use><use xlink:href="#mezo" width="25.5" height="25.5" x="237.5" y="387.5"></use><use xlink:href="#mezo" width="25.5" height="25.5" x="237.5" y="412.5"></use><use xlink:href="#mezo" width="25.5" height="25.5" x="262.5" y="62.5"></use><use xlink:href="#mezo" width="25.5" height="25.5" x="262.5" y="112.5"></use><use xlink:href="#mezo" width="25.5" height="25.5" x="262.5" y="137.5"></use><use xlink:href="#mezo" width="25.5" height="25.5" x="262.5" y="162.5"></use><use xlink:href="#mezo" width="25.5" height="25.5" x="262.5" y="187.5"></use><use xlink:href="#mezo" width="25.5" height="25.5" x="262.5" y="212.5"></use><use xlink:href="#mezo" width="25.5" height="25.5" x="262.5" y="237.5"></use><use xlink:href="#mezo" width="25.5" height="25.5" x="262.5" y="262.5"></use><use xlink:href="#mezo" width="25.5" height="25.5" x="262.5" y="287.5"></use><use xlink:href="#mezo" width="25.5" height="25.5" x="262.5" y="312.5"></use><use xlink:href="#mezo" width="25.5" height="25.5" x="262.5" y="337.5"></use><use xlink:href="#mezo" width="25.5" height="25.5" x="262.5" y="362.5"></use><use xlink:href="#mezo" width="25.5" height="25.5" x="262.5" y="387.5"></use><use xlink:href="#mezo" width="25.5" height="25.5" x="262.5" y="412.5"></use><use xlink:href="#mezo" width="25.5" height="25.5" x="287.5" y="62.5"></use><use xlink:href="#mezo" width="25.5" height="25.5" x="287.5" y="112.5"></use><use xlink:href="#mezo" width="25.5" height="25.5" x="287.5" y="137.5"></use><use xlink:href="#mezo" width="25.5" height="25.5" x="287.5" y="187.5"></use><use xlink:href="#mezo" width="25.5" height="25.5" x="287.5" y="212.5"></use><use xlink:href="#mezo" width="25.5" height="25.5" x="287.5" y="237.5"></use><use xlink:href="#mezo" width="25.5" height="25.5" x="287.5" y="262.5"></use><use xlink:href="#mezo" width="25.5" height="25.5" x="287.5" y="287.5"></use><use xlink:href="#mezo" width="25.5" height="25.5" x="287.5" y="312.5"></use><use xlink:href="#mezo" width="25.5" height="25.5" x="287.5" y="337.5"></use><use xlink:href="#mezo" width="25.5" height="25.5" x="287.5" y="362.5"></use><use xlink:href="#mezo" width="25.5" height="25.5" x="287.5" y="387.5"></use><use xlink:href="#mezo" width="25.5" height="25.5" x="312.5" y="37.5"></use><use xlink:href="#mezo" width="25.5" height="25.5" x="312.5" y="62.5"></use><use xlink:href="#mezo" width="25.5" height="25.5" x="312.5" y="87.5"></use><use xlink:href="#mezo" width="25.5" height="25.5" x="312.5" y="112.5"></use><use xlink:href="#mezo" width="25.5" height="25.5" x="312.5" y="137.5"></use><use xlink:href="#mezo" width="25.5" height="25.5" x="312.5" y="162.5"></use><use xlink:href="#mezo" width="25.5" height="25.5" x="312.5" y="187.5"></use><use xlink:href="#mezo" width="25.5" height="25.5" x="312.5" y="212.5"></use><use xlink:href="#mezo" width="25.5" height="25.5" x="312.5" y="237.5"></use><use xlink:href="#mezo" width="25.5" height="25.5" x="312.5" y="262.5"></use><use xlink:href="#mezo" width="25.5" height="25.5" x="312.5" y="287.5"></use><use xlink:href="#mezo" width="25.5" height="25.5" x="312.5" y="312.5"></use><use xlink:href="#mezo" width="25.5" height="25.5" x="312.5" y="337.5"></use><use xlink:href="#mezo" width="25.5" height="25.5" x="312.5" y="362.5"></use><use xlink:href="#mezo" width="25.5" height="25.5" x="312.5" y="387.5"></use><use xlink:href="#mezo" width="25.5" height="25.5" x="337.5" y="62.5"></use><use xlink:href="#mezo" width="25.5" height="25.5" x="337.5" y="87.5"></use><use xlink:href="#mezo" width="25.5" height="25.5" x="337.5" y="112.5"></use><use xlink:href="#mezo" width="25.5" height="25.5" x="337.5" y="137.5"></use><use xlink:href="#mezo" width="25.5" height="25.5" x="337.5" y="162.5"></use><use xlink:href="#mezo" width="25.5" height="25.5" x="337.5" y="187.5"></use><use xlink:href="#mezo" width="25.5" height="25.5" x="337.5" y="212.5"></use><use xlink:href="#mezo" width="25.5" height="25.5" x="337.5" y="237.5"></use><use xlink:href="#mezo" width="25.5" height="25.5" x="337.5" y="262.5"></use><use xlink:href="#mezo" width="25.5" height="25.5" x="337.5" y="287.5"></use><use xlink:href="#mezo" width="25.5" height="25.5" x="337.5" y="312.5"></use><use xlink:href="#mezo" width="25.5" height="25.5" x="337.5" y="337.5"></use><use xlink:href="#mezo" width="25.5" height="25.5" x="337.5" y="362.5"></use><use xlink:href="#mezo" width="25.5" height="25.5" x="362.5" y="62.5"></use><use xlink:href="#mezo" width="25.5" height="25.5" x="362.5" y="162.5"></use><use xlink:href="#mezo" width="25.5" height="25.5" x="362.5" y="187.5"></use><use xlink:href="#mezo" width="25.5" height="25.5" x="362.5" y="212.5"></use><use xlink:href="#mezo" width="25.5" height="25.5" x="362.5" y="237.5"></use><use xlink:href="#mezo" width="25.5" height="25.5" x="362.5" y="262.5"></use><use xlink:href="#mezo" width="25.5" height="25.5" x="362.5" y="287.5"></use><use xlink:href="#mezo" width="25.5" height="25.5" x="362.5" y="312.5"></use><use xlink:href="#mezo" width="25.5" height="25.5" x="362.5" y="337.5"></use><use xlink:href="#mezo" width="25.5" height="25.5" x="362.5" y="362.5"></use><use xlink:href="#mezo" width="25.5" height="25.5" x="387.5" y="137.5"></use><use xlink:href="#mezo" width="25.5" height="25.5" x="387.5" y="162.5"></use><use xlink:href="#mezo" width="25.5" height="25.5" x="387.5" y="187.5"></use><use xlink:href="#mezo" width="25.5" height="25.5" x="387.5" y="212.5"></use><use xlink:href="#mezo" width="25.5" height="25.5" x="387.5" y="237.5"></use><use xlink:href="#mezo" width="25.5" height="25.5" x="387.5" y="262.5"></use><use xlink:href="#mezo" width="25.5" height="25.5" x="387.5" y="287.5"></use><use xlink:href="#mezo" width="25.5" height="25.5" x="387.5" y="312.5"></use><use xlink:href="#mezo" width="25.5" height="25.5" x="412.5" y="162.5"></use><use xlink:href="#mezo" width="25.5" height="25.5" x="412.5" y="187.5"></use><use xlink:href="#mezo" width="25.5" height="25.5" x="412.5" y="212.5"></use><use xlink:href="#mezo" width="25.5" height="25.5" x="412.5" y="237.5"></use><use xlink:href="#mezo" width="25.5" height="25.5" x="412.5" y="262.5"></use></g>
</svg>